# Blender v2.72 (sub 0) OBJ File: 'lamp_post.blend'
# www.blender.org
o Cube_Cube.001
v -0.405576 0.013348 -0.401800
v -0.405576 0.013348 0.401800
v -0.354842 5.674166 0.351539
v -0.354842 5.674166 -0.351539
v 0.405576 0.013348 -0.401800
v 0.354842 5.674166 -0.351539
v 0.405576 0.013348 0.401800
v 0.354842 5.674166 0.351539
v -0.720290 5.853547 0.713584
v -0.720290 5.853547 -0.713584
v 0.720290 5.853547 -0.713584
v 0.720290 5.853547 0.713584
v -0.720290 8.070545 0.713584
v -0.720290 8.070545 -0.713584
v 0.720290 8.070545 -0.713584
v 0.720290 8.070545 0.713584
v -0.354842 5.674166 -0.351539
v -0.354842 5.674166 -0.351539
v -0.354842 5.674166 -0.351539
v -0.354842 5.674166 -0.351539
v -0.354842 5.674166 -0.351539
v -0.720290 5.853547 0.713584
v -0.720290 5.853547 0.713584
v -0.720290 5.853547 0.713584
v -0.720290 5.853547 0.713584
v -0.720290 5.853547 0.713584
v 0.354842 5.674166 0.351539
v 0.354842 5.674166 0.351539
v 0.354842 5.674166 0.351539
v 0.354842 5.674166 0.351539
v 0.354842 5.674166 0.351539
v 0.720290 5.853547 -0.713584
v 0.720290 5.853547 -0.713584
v 0.720290 5.853547 -0.713584
v 0.720290 5.853547 -0.713584
v 0.720290 5.853547 -0.713584
v 0.354842 5.674166 -0.351539
v 0.354842 5.674166 -0.351539
v 0.354842 5.674166 -0.351539
v 0.354842 5.674166 -0.351539
v 0.354842 5.674166 -0.351539
v -0.405576 0.013348 0.401800
v -0.405576 0.013348 0.401800
v -0.405576 0.013348 0.401800
v 0.405576 0.013348 0.401800
v 0.405576 0.013348 0.401800
v 0.405576 0.013348 0.401800
v 0.405576 0.013348 0.401800
v 0.720290 5.853547 0.713584
v 0.720290 5.853547 0.713584
v 0.720290 5.853547 0.713584
v 0.720290 5.853547 0.713584
v 0.720290 5.853547 0.713584
v -0.720290 5.853547 -0.713584
v -0.720290 5.853547 -0.713584
v -0.720290 5.853547 -0.713584
v -0.720290 5.853547 -0.713584
v -0.720290 5.853547 -0.713584
v -0.354842 5.674166 0.351539
v -0.354842 5.674166 0.351539
v -0.354842 5.674166 0.351539
v -0.354842 5.674166 0.351539
v -0.354842 5.674166 0.351539
v -0.720290 8.070545 0.713584
v -0.720290 8.070545 0.713584
v -0.720290 8.070545 0.713584
v -0.720290 8.070545 -0.713584
v -0.720290 8.070545 -0.713584
v -0.720290 8.070545 -0.713584
v -0.720290 8.070545 -0.713584
v 0.720290 8.070545 -0.713584
v 0.720290 8.070545 -0.713584
v 0.720290 8.070545 -0.713584
v 0.720290 8.070545 0.713584
v 0.720290 8.070545 0.713584
v 0.720290 8.070545 0.713584
v 0.720290 8.070545 0.713584
v -0.405576 0.013348 -0.401800
v -0.405576 0.013348 -0.401800
v -0.405576 0.013348 -0.401800
v -0.405576 0.013348 -0.401800
v 0.405576 0.013348 -0.401800
v 0.405576 0.013348 -0.401800
v 0.405576 0.013348 -0.401800
vt 0.000000 0.000000
vt 0.461260 0.773025
vt 0.707247 0.795993
vn 0.440600 -0.897700 0.000000
vn 0.000000 1.000000 0.000000
vn 0.000000 0.000000 1.000000
vn 1.000000 0.000000 0.000000
vn 0.000000 -0.896000 -0.444000
vn 0.000000 0.000000 -1.000000
vn -1.000000 0.000000 0.000000
vn 0.000000 -0.896000 0.444000
vn -0.440600 -0.897700 0.000000
vn 0.000000 -1.000000 0.000000
vn -1.000000 0.009000 0.000000
vn 0.000000 0.008900 1.000000
vn 1.000000 0.009000 0.000000
vn 0.000000 0.008900 -1.000000
s 1
f 11/1/1 8/1/1 6/1/1
f 27/1/1 34/1/1 49/1/1
f 14/2/2 13/3/2 74/1/2
f 16/1/2 71/1/2 68/2/2
f 76/1/3 64/3/3 25/1/3
f 75/1/4 50/1/4 72/1/4
f 10/1/5 37/1/5 17/1/5
f 33/1/6 69/2/6 15/1/6
f 54/1/6 67/2/6 32/1/6
f 70/2/7 56/1/7 65/3/7
f 55/1/7 24/1/7 66/3/7
f 22/1/3 12/1/3 77/1/3
f 36/1/4 73/1/4 53/1/4
f 28/1/8 51/1/8 60/1/8
f 58/1/5 35/1/5 40/1/5
f 23/1/8 3/1/8 52/1/8
f 9/1/9 57/1/9 4/1/9
f 26/1/9 18/1/9 59/1/9
f 1/1/10 7/1/10 2/1/10
f 45/1/10 78/1/10 5/1/10
f 61/1/11 19/1/11 79/1/11
f 42/1/11 62/1/11 80/1/11
f 63/1/12 43/1/12 29/1/12
f 44/1/12 46/1/12 30/1/12
f 31/1/13 47/1/13 38/1/13
f 48/1/13 82/1/13 39/1/13
f 41/1/14 83/1/14 20/1/14
f 84/1/14 81/1/14 21/1/14
