# Blender v2.74 (sub 0) OBJ File: 'player.blend'
# www.blender.org
o Cube
v -0.357103 4.528302 0.441211
v -0.524851 5.678008 0.583614
v -0.492449 5.056141 0.836691
v -0.387130 5.668771 -0.079577
v -0.514141 5.001445 0.064698
v -0.461715 4.223022 0.327272
v -0.912273 3.888952 0.249966
v -0.915288 0.000375 0.292520
v 0.357103 4.528302 0.441211
v 0.524851 5.678008 0.583614
v 0.000000 4.350193 0.608978
v 0.492449 5.056141 0.836691
v 0.000000 5.748724 0.859044
v 0.000000 5.139496 1.000000
v 0.000000 5.911708 0.263857
v 0.387130 5.668771 -0.079577
v 0.514141 5.001445 0.064698
v 0.000000 5.156848 -0.358961
v 0.000000 4.364715 0.397215
v 0.000000 4.717283 -0.120691
v 0.461715 4.223022 0.327272
v 0.000000 4.374278 -0.346508
v 0.000000 5.703794 -0.267974
v 0.912273 3.888952 0.249966
v 0.000000 4.166658 0.646430
v 0.000000 0.013250 0.572579
v 0.915288 0.000375 0.292520
v 0.000000 0.010084 -0.724826
vt 0.975780 0.890769
vt 0.920614 0.975194
vt 0.857367 0.924769
vt 0.875736 0.743890
vt 0.970852 0.744809
vt 0.896146 0.865014
vt 0.811818 0.999870
vt 0.717178 0.957863
vt 0.776303 0.927302
vt 0.796350 0.846173
vt 0.957430 0.715757
vt 0.682267 0.871061
vt 0.713469 0.789496
vt 0.853476 0.663325
vt 0.667460 0.734905
vt 0.812674 0.576428
vt 0.988089 0.674410
vt 0.810523 0.000130
vt 0.988089 0.003015
vt 0.502628 0.024143
vt 0.029177 0.890769
vt 0.147589 0.924769
vt 0.084343 0.975194
vt 0.129220 0.743890
vt 0.034105 0.744809
vt 0.108810 0.865014
vt 0.193138 0.999870
vt 0.287778 0.957863
vt 0.228653 0.927302
vt 0.208607 0.846173
vt 0.047527 0.715757
vt 0.322689 0.871061
vt 0.291487 0.789496
vt 0.151480 0.663325
vt 0.337497 0.734905
vt 0.192283 0.576428
vt 0.016868 0.674410
vt 0.194434 0.000130
vt 0.016868 0.003015
vt 0.502329 0.024143
vn -0.476300 0.198200 0.856700
vn -0.540500 -0.373500 0.753900
vn -0.347300 0.337900 0.874800
vn -0.151500 -0.617300 0.772000
vn -0.259400 0.931500 0.255100
vn -0.252900 0.901100 -0.352300
vn -0.998700 -0.039500 0.030900
vn -0.958600 -0.280900 0.046800
vn -0.458300 0.882300 -0.107500
vn -0.969000 0.140500 -0.203200
vn -0.422000 -0.904500 -0.062000
vn -0.502000 -0.412200 -0.760400
vn -0.546400 -0.625000 -0.557500
vn -0.038800 -0.337700 0.940500
vn -0.848800 0.290700 -0.441600
vn -0.785700 0.433800 -0.441000
vn -0.443600 0.147100 -0.884100
vn -0.626300 -0.049000 -0.778000
vn -0.560300 0.802800 -0.203700
vn -0.317200 0.742400 0.590000
vn -0.467800 0.455700 0.757300
vn -0.401200 0.010300 0.915900
vn -0.292300 -0.017000 0.956200
vn -0.572000 0.070800 -0.817200
vn -0.743400 -0.006700 -0.668900
vn 0.476300 0.198200 0.856700
vn 0.540500 -0.373500 0.753900
vn 0.347300 0.337900 0.874800
vn 0.151500 -0.617300 0.772000
vn 0.259400 0.931500 0.255100
vn 0.252900 0.901100 -0.352300
vn 0.998700 -0.039500 0.030900
vn 0.958600 -0.280900 0.046800
vn 0.458300 0.882300 -0.107500
vn 0.969000 0.140500 -0.203200
vn 0.422000 -0.904500 -0.062000
vn 0.502000 -0.412200 -0.760400
vn 0.546400 -0.625000 -0.557500
vn 0.038800 -0.337700 0.940500
vn 0.848800 0.290700 -0.441600
vn 0.785700 0.433800 -0.441000
vn 0.443600 0.147100 -0.884100
vn 0.626300 -0.049000 -0.778000
vn 0.560300 0.802800 -0.203700
vn 0.317200 0.742400 0.590000
vn 0.467800 0.455700 0.757300
vn 0.401200 0.010300 0.915900
vn 0.292300 -0.017000 0.956200
vn 0.572000 0.070800 -0.817200
vn 0.743400 -0.006700 -0.668900
s off
f 14/1/1 13/2/1 2/3/1
f 1/4/2 11/5/2 14/1/2
f 2/3/3 3/6/3 14/1/3
f 1/4/4 14/1/4 3/6/4
f 13/2/5 15/7/5 2/3/5
f 23/8/6 4/9/6 15/7/6
f 3/6/7 2/3/7 5/10/7
f 3/6/8 5/10/8 1/4/8
f 15/7/9 4/9/9 2/3/9
f 5/10/10 2/3/10 4/9/10
f 11/5/11 1/4/11 19/11/11
f 18/12/12 20/13/12 5/10/12
f 5/10/13 20/13/13 1/4/13
f 19/11/14 1/4/14 6/14/14
f 20/13/15 22/15/15 1/4/15
f 6/14/16 1/4/16 22/15/16
f 23/8/17 18/12/17 4/9/17
f 4/9/18 18/12/18 5/10/18
f 22/15/19 7/16/19 6/14/19
f 6/14/20 25/17/20 19/11/20
f 7/16/21 25/17/21 6/14/21
f 25/17/22 7/16/22 8/18/22
f 26/19/23 25/17/23 8/18/23
f 7/16/24 22/15/24 28/20/24
f 8/18/25 7/16/25 28/20/25
f 14/21/26 10/22/26 13/23/26
f 9/24/27 14/21/27 11/25/27
f 10/22/28 14/21/28 12/26/28
f 9/24/29 12/26/29 14/21/29
f 13/23/30 10/22/30 15/27/30
f 23/28/31 15/27/31 16/29/31
f 12/26/32 17/30/32 10/22/32
f 12/26/33 9/24/33 17/30/33
f 15/27/34 10/22/34 16/29/34
f 17/30/35 16/29/35 10/22/35
f 11/25/36 19/31/36 9/24/36
f 18/32/37 17/30/37 20/33/37
f 17/30/38 9/24/38 20/33/38
f 19/31/39 21/34/39 9/24/39
f 20/33/40 9/24/40 22/35/40
f 21/34/41 22/35/41 9/24/41
f 23/28/42 16/29/42 18/32/42
f 16/29/43 17/30/43 18/32/43
f 22/35/44 21/34/44 24/36/44
f 21/34/45 19/31/45 25/37/45
f 24/36/46 21/34/46 25/37/46
f 25/37/47 27/38/47 24/36/47
f 26/39/48 27/38/48 25/37/48
f 24/36/49 28/40/49 22/35/49
f 27/38/50 28/40/50 24/36/50
